<?xml version="1.0" encoding="utf-8"?>
<!-- Generator: Adobe Illustrator 17.1.0, SVG Export Plug-In . SVG Version: 6.00 Build 0)  -->
<!DOCTYPE svg PUBLIC "-//W3C//DTD SVG 1.1//EN" "http://www.w3.org/Graphics/SVG/1.1/DTD/svg11.dtd">
<svg version="1.1" id="Layer_1" xmlns="http://www.w3.org/2000/svg" xmlns:xlink="http://www.w3.org/1999/xlink" x="0px" y="0px"
	 viewBox="0 0 350 500" style="enable-background:new 0 0 350 500;" xml:space="preserve">
<style type="text/css">
	path {fill:#FFFFFF}
	.st0{fill:transparent;}
</style>
<g>
	<path class="st0" d="M1,1c116.6,0,233.2,0,349.9,0c0,166.5,0,333.1,0,499.8c-116.6,0-233.3,0-349.9,0C1,334.3,1,167.7,1,1z
		 M83.3,223.3c0,0.3,0,0.5,0,0.8c-5.6,0.4-11.3,0.5-16.9,1.1c-5.6,0.6-11.2,1.2-15,6.2c-4.6,6-9.6,11.8-13.9,18.1
		c-1.5,2.1-2.1,5.2-2.3,7.8c-0.2,2.9,0.2,6,0.9,8.9c3,12.5,4,25.8,14.1,35.4c1.4,1.3,2.8,2.9,3.6,4.6c1.4,3.1,3.4,4.2,6.7,3.7
		c11.2-2,22.3-2.2,33.3,1.8c2.6,1,6,0.5,8.9,0.1c5.6-0.8,11.3-1.4,16.6-3.1c5.3-1.6,11.5-3.2,15-7c6.8-7.2,11.6-15.9,13.8-26
		c1.6-7.2,3.7-14.6,7.4-20.9c5.5-9.3,1.9-20.1-3.5-27c-1.8-2.4-5.4-4.7-8.2-4.8c-10.4-0.5-20.8,0.1-31.2,0.1
		C102.9,223.4,93.1,223.3,83.3,223.3z M221.4,226.8c-0.1,0.4-0.1,0.7-0.2,1.1c-4.3,0-8.6-0.2-12.9,0c-8.6,0.5-15.2,7.2-15.7,15.7
		c-0.7,12.9,4.6,24.4,10,35.4c3.7,7.6,9.6,14.1,14.3,21.3c4,6.3,9.3,10.5,16.6,12.4c11.5,3.1,23,6.4,34.6,9.3
		c3.2,0.8,6.6,0.6,9.9,0.7c2.6,0.1,5.3-0.2,7.8,0.2c5.3,0.9,10.9-1.3,13.8-5.7c2.7-4.2,4.5-8.5,5-13.8c0.8-7.4,3.1-14.6,4.7-22
		c0.3-1.1,0.6-2.3,0.7-3.4c0.6-8.6-0.8-16.9-4.4-24.6c-2.4-5-3.3-10.9-9.8-13.4c-10.3-3.9-19.8-10.4-31.8-7.6c-1.2,0.3-2.7,0-4-0.2
		C247.1,230.6,234.2,228.7,221.4,226.8z M245.2,447.9c4.4-1.2,8.7-8,7.6-11.4c-0.2-0.6-0.5-1.2-0.9-1.7c-2.7-3.4-6.4-6.3-7.9-10.1
		c-1.7-4.4-1.3-9.6-1.7-14.5c0-0.4,1.1-1.3,1.7-1.4c7.7-1.4,12.7-6.3,16.2-12.8c1.5-2.8,3.5-2.9,6.2-1.8c5.1,2,10.3,3.7,15.5,5.6
		c8,2.8,13.4,1,17.8-6.2c5.8-9.3,11.2-18.8,17.2-27.9c5.5-8.3,11.5-16.3,17.3-24.4c3-4.1,3.5-7.8,0.6-12.4c-4-6.3-6.1-13.2-5.8-20.8
		c0.2-5,0.7-10.1-0.2-14.9c-2.2-12.2-5.5-24.3-7.8-36.5c-2.3-12.2-5.9-24.3-4.5-37c0.7-6.4,0.6-12.6-0.2-19.1
		c-0.8-6.1,2.6-12.8,4.4-19.2c3.2-11.1,6.7-22.2,10-33.3c0.7-2.2,1.6-4.4,1.6-6.6c0-7.9-0.8-15.9-0.4-23.8
		c0.8-13.2-1.5-25.4-8.5-36.7c-5.4-8.6-11.7-15.9-22-19.1c-6.4-2-13.2-4.6-18.3-8.9c-8.2-6.8-17.9-9.8-27-14.3
		c-6.4-3.1-12.9-6.1-18.7-10.2c-9.6-6.8-20.6-9.6-31.5-13c-8.8-2.7-18.1-4.1-27.2-5.9c-2.3-0.5-4.8-1-6.9-0.4
		c-10.7,3-21.6,4.3-32,9.9c-11.2,6.1-24.6,8.3-37.2,11.8c-4.4,1.2-8.2,2.6-12,5.4C85.7,40,80.1,43.9,74,45.7
		c-17.7,5.5-25.4,20.9-34.5,34.3c-5.3,7.8-6.4,18.2-5.4,28c0.6,5.9,0.8,12.4,5.5,17.1c6.2,6.3,9.6,14.3,10.2,22.6
		c0.7,9.6,1.5,19.5-1.4,29.1c-0.3,0.9-0.5,2-0.3,3c2.2,9.2-4.1,17.7-2.1,26.9c0.2,0.9-1.6,2.3-2.5,3.5c-5,6.8-10.7,13.3-14.6,20.7
		c-3.6,6.8-4.7,14.9-7.6,22.1c-5.2,13.1-6.9,26.7-5.2,40.5c1.1,8.9,0.5,17.6-2.2,26.1c-2.5,7.8,0.3,14,6.3,18.4
		c4.3,3.1,9.6,4.8,14.8,7.3c-1.1,1.7-2.4,3.4-3.4,5.3c-2.2,4.2-3.6,8.2-0.5,13c7.6,11.3,24.5,18.3,37.9,14.8
		c13.3-3.5,22.1,3.7,26.8,13.6c2.2,4.6,1.8,10.4,3.1,15.6c2.1,8.6-0.1,16.4-3.9,24c-1.3,2.7-2.1,5.7-3.1,8.6
		c0.4,0.4,0.8,0.8,1.2,1.2c2.1-0.9,5.3-1.4,5.9-2.9c2.1-5.3,3.4-11,4.9-16.6c2.4-8.8-0.6-17.1-2.4-25.5
		c-3.6-16.9-17.9-26.2-34.8-22.9c-10.5,2.1-19.7-0.1-27.4-7.8c-5.4-5.3-5.9-8.4-1.8-14.7c0.4-0.6,0.7-1.1,1-1.7
		c1.9-3.6,1.4-6.4-2.5-8.2c-1.8-0.8-3.7-1.6-5.6-2.1c-7.4-1.8-12.7-9.4-12.1-17c1-12.2,2.3-24.4,2.3-36.6c0-11.6,2-22.7,5.1-33.8
		c4.4-15.8,13.2-28.9,23.5-41.2c0.7-0.8,1.5-1.9,1.6-2.9c0.8-5.6,1.7-11.3,2.1-17c0.8-10.4,1.8-20.8,1.8-31.2
		c0-13-4.6-24.8-9.9-36.6c-3.8-8.4-8.4-16.5-5.5-27.3c5.6-20.8,17-35.6,36.7-44.1c3-1.3,6.3-2.7,8.7-4.9
		C96.8,35.3,112.3,34,127,30.2c7.1-1.8,14.6-4,20.5-8.1c13.9-9.7,28-12,43.5-4.8c1.9,0.9,4.1,1.4,6.2,1.7c12.3,1.6,24,4.9,34.4,12.1
		c3.5,2.5,7.1,4.9,11,6.7c5.3,2.6,11.1,4.3,16.4,7.1c9.1,4.8,17.8,10.3,26.9,15.1c5.4,2.9,11.3,4.8,16.7,7.8
		c16.1,9,27.5,25.3,23.9,45.8c-0.7,3.7,0,7.6,0.3,11.4c0.9,10.7,0,21-3.6,31.3c-4.7,13.4-8.4,27.3-11.2,41.2
		c-1.4,6.8,0.8,14.2,0.3,21.3c-0.9,13.3,0.7,26.2,4.1,39c1.8,6.9,3.8,13.8,5.2,20.8c1.1,5.6,1.5,11.4,2.1,17.1
		c0.3,3.1,1,6.2,0.7,9.2c-0.7,9.7-0.7,19.1,6.8,26.5c2.2,2.2,0.9,3.7-0.6,5.5c-4.7,5.7-10,11.1-13.9,17.4
		c-7,11.4-13.1,23.4-19.5,35.2c-2.1,3.9-4.8,6.9-9.3,5.9c-5.6-1.2-11.3-2.9-16.4-5.5c-6.4-3.2-11.5-2.7-15.5,3.1
		c-3.8,5.3-8,9.6-15.1,10.2c-3.8,0.3-6.4,3-5.5,7.4c0.9,4.4,1.5,8.9,3,13.1C241.2,431.7,246.6,438.7,245.2,447.9z M171.1,292
		c-1,0.6-1.4,0.7-1.6,1c-13.3,16.3-20.8,35.3-25.5,55.6c-0.9,3.9-1.2,7.9-2.4,11.7c-2.3,7.3-4.8,14.6-3.9,22.4
		c0.2,1.7,0.7,4.1,1.9,4.8c1.5,0.8,3.9,0.5,5.7,0.2c2.1-0.4,4-2,6-2.1c8.1-0.2,16.2-0.1,24.6-0.1c-0.1-0.8-0.4-2.5-0.6-4.3
		c-1.2-10.7-2.3-21.3-3.4-32c-0.1-1,0.1-2,0.2-3c0.5-6.3,1.8-12.7,1.2-18.8c-0.9-9.3-2.6-18.5-1.7-28
		C172,297.1,171.4,294.8,171.1,292z M153.3,160.8c1.8-2.6,5.1-5.9,4.5-6.8c-1.5-2.6-4.7-4.2-7.2-6.2c-0.1-0.1-0.3-0.1-0.5-0.1
		c-13-3.5-26-1.9-39.1-0.7c-20.8,1.8-35.5,13.8-48.1,28.8c-6.1,7.2-5.8,16.2-1.7,24c3.8,7.2,10.4,11.2,19.2,10.9
		c11.3-0.4,21.1-5.4,31.1-9.6c6.3-2.7,12-6.7,17.9-10.1c0.3,0.4,0.7,0.8,1,1.2c-1.4,1.3-2.7,2.6-4.1,3.9c-1.6,1.5-3.2,3-4.8,4.6
		c2,0,4.1,0,6.5,0c-0.8,3.6-1.8,7.7-2.7,11.8c0.4,0.3,0.8,0.6,1.2,0.9c1.1-0.8,2.7-1.3,3.1-2.4c0.9-2.1,1-4.5,1.6-6.7
		c0.6-2.7,0.5-6.4,2.3-7.8c3.7-3.1,8.4-5.1,12.7-7.4c4.6,7.1,3.6,16.2,9.9,22.3c0.2-3.5-0.4-6.8-1.2-10.1c-1.1-4.4-4-9.5-2.8-13.1
		c1.2-3.8,6.5-6.3,9.9-9.5c0.6-0.6,0.7-1.8,1-2.8c-1,0.1-2.3-0.2-3,0.2c-3.2,2-6.3,4.2-9.4,6.3c-0.3-0.4-0.5-0.8-0.8-1.2
		c3.8-7.5,15-5.3,19.1-14.1c-8.9-0.3-13.6,6.7-20.6,9c-1.9-5.3-3.7-10.6-5.8-15.8c-0.6-1.4-2.2-2.4-3.3-3.6
		c-0.6,1.4-1.3,2.8-1.7,4.2c-3.3,11.9-2.9,25.7-18.8,30.4c-10.9,3.2-21.1,8.8-32,12.1c-4.5,1.3-10.2,0-15-1.5
		c-6.2-2-7.9-6.5-6.1-13.1c3.1-11.5,10.1-20,20.3-26c8.2-4.9,17.4-6.1,26.5-8.1C126.6,151.6,140.4,149.6,153.3,160.8z M182.6,387.4
		c0.9,0.1,1.9,0.4,2.8,0.2c8.8-1.2,17.7-2.5,26.5-3.9c2.3-0.4,2.5-1.4,1.7-3.9c-3.3-10.7-9-20.6-10.3-32c-0.9-7.4-2-15.1-4.8-21.8
		c-4.3-10-10.2-19.2-15.5-28.8c-0.8-1.4-2.1-2.6-3.2-3.9c-0.6,0.2-1.1,0.4-1.7,0.6c0.9,13.5,0.9,27.2,2.8,40.6
		C183.3,352.1,183.7,369.3,182.6,387.4z M258.3,185.5c0.4,0,0.9-0.1,1.3-0.1c4.4,10.5,8.7,21.1,13.2,31.5c0.7,1.7,2,3.1,3,4.7
		c1.4-1.5,3-2.9,4-4.6c0.7-1.2,0.5-2.9,0.7-4.4c0.9-5,1.4-10.2,2.9-15.1c1.9-6.2,4.9-12,7.1-18.1c5.9-16.4,11.6-32.8,17.5-49.1
		c1.2-3.2,3.2-6.1,4.8-9.1c-7.9-3.8-9-3.2-10.9,4.5c-1.2,4.8-2.6,9.6-4.3,14.3c-3.8,11-8,21.8-11.7,32.8c-3.7,11.1-7,22.4-10.8,34.6
		c-2.5-5.4-5-9.9-6.7-14.6c-2.8-8-5.6-16-7.4-24.2c-2.1-9.7-3.1-19.6-4.8-29.3c-0.2-1.1-1.2-2-1.9-3c-1.2,2-1.6,3.8-1.4,5.5
		c0.5,7.2,2.1,14.5,1.6,21.7c-1.3,17-3.6,34-5.4,51c-0.1,1.4,0.3,3.7,1.3,4.2c1.3,0.7,3.6,0.8,5,0.1c1.1-0.5,2.1-2.6,2.1-4
		c0.2-6.4,0-12.9,0.1-19.3C257.9,192.1,258.2,188.8,258.3,185.5z M223.6,82.3c-4,4-14,50.1-11.8,54.6c6.7-12,5.6-25.4,10.7-37
		c1.1,7.7,1,15.4,1.8,23c0.3,2.9-1.6,7,3.3,9.4c3-14.5,5.9-28.5,8.9-43.1c0,13.9,0,27,0,40.2c0.5,0.2,1.1,0.3,1.6,0.5
		c0.7-2,2.1-3.9,2.1-5.9c0.5-22.9,0.8-45.8,1-68.8c0-1.7-0.7-3.4-1.1-5.1c-0.8,0-1.6,0-2.4,0c-3.2,17.3-6.5,34.5-9.6,51.1
		C226.7,95.7,225.3,89.5,223.6,82.3z M199.5,217.7c0.9,0.1,1.9,0.2,2.8,0.4c2.2-15.9,4.4-31.8,6.6-47.6c2.8,14.1,4.4,28.1,9.6,41.7
		c0-28.9,10.9-55.6,16.7-84.4c-2,0.9-3.2,1-3.3,1.5c-4.9,15.9-9.7,31.8-14.5,47.5c-2.9-13.1-6-27-9.1-40.8c-0.4,0.1-0.7,0.2-1.1,0.3
		C204.7,163.3,202.1,190.5,199.5,217.7z M89.5,92.7c1.5,7.7,0.4,13.4-7,17c-4.7,2.3-8.9,5.9-13.1,9.1c-1.1,0.8-1.4,2.6-2.1,3.9
		c1.6,0,3.2,0.1,4.8-0.1c0.7-0.1,1.3-1,2-1.4c5-3.1,10-6.2,15.3-9.5c0,8.8,0.2,17.2-0.1,25.6c-0.1,3.4,1.1,4.7,4.3,4
		c1.8-0.4,3.6-1.2,4-1.3c-0.9-10.5-1.9-20-2.3-29.5c-0.1-1.9,1.7-4.5,3.3-5.9c11.7-9.3,23.7-18.3,35.5-27.5c1.1-0.8,1.4-2.7,2-4.1
		c-1.5-0.2-3.1-0.7-4.4-0.4c-22.5,5.4-42.5,16.9-63.8,25.1c-1.6,0.6-2.8,2.2-4.2,3.4c0.3,0.7,0.7,1.3,1,2
		C72.8,99.6,81,96.2,89.5,92.7z M281.7,104.8c-0.3-0.7-0.6-1.4-0.9-2.1c-3.8,1.2-7.6,2.3-11.5,3.5c-0.3-0.7-0.5-1.3-0.8-2
		c4.3-2,8.7-3.9,13-5.9c-0.2-0.6-0.4-1.2-0.6-1.8c-3.9,1.2-7.7,2.3-12,3.6c0-7.9-0.4-15.7,0.1-23.4c0.5-7.6,1.9-15.1,2.8-22.7
		c-1.9,0.1-2.4,0.4-2.5,0.8c-4.2,11.9-8,23.9-12.5,35.7c-3,7.7-2.1,18-12.7,21.3c-0.1,0-0.1,0.6-0.2,1.4c1.8,0,3.6,0,5.4,0
		c0.1,0.4,0.2,0.8,0.3,1.2c-2.7,1.4-5.3,2.8-8,4.2c0.2,0.4,0.3,0.8,0.5,1.1c1.6,0,3.3,0,5.4,0c-1.3,2.7-2.4,5-3.4,7.2
		c-3,6.6-1.5,8.8,6.6,8.8c0.2-3.7,0-7.6,0.7-11.3c0.5-2.9,1.2-6.5,3.2-8.1c2.5-2,6.4-2.2,10.6-3.5c-0.4,6.9-0.5,13.4-1.2,19.7
		c-0.8,6.9,0.9,9,7.4,7.9c-0.8-7.6-1.7-15.1-2.5-22.7c-0.6-5.1,1.2-8.5,6.5-9.8C277.7,107.5,279.7,105.9,281.7,104.8z M214.5,101.2
		c0.5-0.6,1.1-1.2,1.6-1.8c-2.7-7-5.8-13.9-8-21.1c-1.7-5.5-5-9.6-9.2-13.2c-5-4.2-8.3-4.1-13,0.5c-10.6,10.5-9.4,30,2.7,38.7
		c8.1,5.9,12.7,13.3,11.5,23.5c-0.3,2.9-0.9,6-2.2,8.6c-0.8,1.7-3,3.9-4.6,3.9c-1.8,0-4.3-1.8-5.4-3.5c-2.9-4.5-2.8-9.5-0.1-14.1
		c2-3.3,1.2-4.9-2.5-5.4c-2-0.2-4.1-0.4-6.4-0.6c-0.7,9.6,0.4,18.2,7,24.6c2.7,2.6,7.7,4.1,11.5,3.9c4.5-0.2,4.9-5.1,5.3-9
		c0.1-1.2,0.3-2.3,0.5-3.5c1.9-13.1-1.4-23.9-13.3-31.2c-5.5-3.4-6.9-8.9-6.4-15c0.4-4.3,0.5-8.7,1.6-12.8c0.7-2.4,2.9-5.1,5.1-6.1
		c1.7-0.8,5.7,0.2,6.7,1.6c5.2,7.8,9.1,16.2,6.8,26.1c-0.3,1.1,0.2,3.4,0.8,3.6C207.9,100,211.2,100.5,214.5,101.2z M144.4,138.4
		c6.9,2.3,8.1,1.4,7.3-5.2c-1.1-8.5,3.6-16.8,12.9-21.6c0.8,9.8,1.7,19.2,2.5,28.9c3.5,0,6.2-0.7,5.1-5.9
		c-1.4-6.7-1.7-13.6-3.3-20.1c-1.2-4.9,0.8-7.3,4.4-9.7c1.2-0.8,1.5-2.8,2.3-4.2c-0.4-0.3-0.9-0.6-1.3-0.8c-2.2,1.1-4.4,2.3-6.6,3.4
		c-0.3-0.3-0.5-0.6-0.8-0.9c2.2-2.4,4.4-4.7,6.7-7.1c-0.4-0.3-0.7-0.7-1.1-1c-1.7,0.9-3.5,1.8-5.6,2.8c-0.4-2.3-0.6-4.2-1-6.1
		c-0.8-3.5-1.7-7-2.8-10.5c-0.2-0.8-1.3-1.7-2-1.8c-0.6-0.1-1.8,0.9-2,1.5c-1.8,6.5-4.1,13.1-5,19.8c-0.6,4.7-2.1,7.6-6.3,9.6
		c-2.2,1-4,2.8-6,4.3c0.3,0.6,0.7,1.2,1,1.8c2.9-1.3,5.9-2.6,8.8-3.9c0.2,0.3,0.3,0.7,0.5,1c-3.1,2-6.1,4-9.2,5.9c0,0.5,0,1,0,1.5
		c2,0.4,4,0.7,6.3,1.1C147.6,126.7,146,132.6,144.4,138.4z M193,186.1c-0.3,0-0.7,0.1-1,0.1c-3-11-5.9-22-9.1-32.9
		c-0.5-1.8-2.4-3.1-3.7-4.7c-0.7,1.6-1.8,3.1-2,4.8c-1.7,12.5-3.3,25.1-5,37.6c-0.9,6.7-2.2,13.4-3.1,20.2c-0.1,0.9,1,2,1.6,3.1
		c0.8-0.6,2.2-1.1,2.5-1.8c1.6-5.9,3.2-11.8,4.2-17.8c1.5-8.5,2.4-17.1,3.6-25.6c0.6,0,1.1,0,1.7,0c3.1,12.5,9.3,24.4,8.1,37.9
		c-0.2,2.8-0.1,5,4,5.1c0.6-3.6,1.3-7.2,1.6-10.8c0.5-5.9,0.5-11.9,1.3-17.8c1.3-9.5,3.3-19,4.7-28.5c0.3-2.3-0.5-4.8-0.7-7.1
		c-0.7,0-1.4,0-2.1,0C197.3,160.5,195.2,173.3,193,186.1z M172.3,465.9c-0.3,0-0.6,0.1-0.9,0.1c0.5,1.7,0.8,4.7,1.5,4.8
		c4.4,0.8,9,1.4,13.4,0.9c1.1-0.1,2.8-4.5,2.5-6.7c-1.2-8.8-1.8-17.5,2.1-25.8c0.3-0.6,0.3-1.3,0.3-2c0.4-5.6-1.9-7.4-7.1-5.6
		c-1.6,0.5-3.1,1.1-4.8,1.4c-3.3,0.5-4.8,2.3-5,5.7C173.8,447.7,173,456.8,172.3,465.9z M136.1,489.7c0.5,0,0.9,0.1,1.4,0.1
		c0.6-0.7,1.5-1.4,1.7-2.3c2.1-8.4,6.7-16.3,5.9-25.4c-0.2-2.9,0.7-5.9,1.3-8.8c1-5.6,4.5-10.7,2.8-16.9c-1.3-4.5-4.4-5.4-8.3-5.4
		c-3.1,0-5.5,0.7-5.9,4.5c-1,8.4-2.4,16.8-3.4,25.2C130.2,470.8,134.3,480,136.1,489.7z M169,471.2c-0.7-2.3-1.3-3.7-1.4-5.2
		c-0.9-10.2-1.7-20.5-2.4-30.8c-0.2-2.9-1.1-4.5-4.2-3.8c-5,1.1-8.8,5.7-9.3,10.8c-0.4,4.1-0.9,8.2-1.5,12.3
		c-1,6.7-2.1,13.4-3.1,20.1c-0.4,2.6,0,5.3,3.5,4.1C156.7,476.6,162.7,473.8,169,471.2z M251.4,176c-0.1-1.2,0-2.3-0.2-3.5
		c-1.4-8.5-9.6-13.6-15.6-9.6c-7.5,4.9-11.7,15.3-9.5,23.8c1.1,4.3,5,7.2,9.4,7.5C243.3,194.8,252,187.4,251.4,176z M232.8,428.4
		c-0.7,0.2-1.4,0.4-2.1,0.5c0,3-0.3,6.1,0.1,9.1c1.4,11.5,4.4,22.7,3,34.5c-0.8,6.7-0.3,6.8,6.4,7.2c1,0.1,2,0.3,2.9,0.6
		c4.5,1.2,6.8,0,7.2-4.6c0.2-2.9-0.5-5.9-1.3-8.7c-1.2-4.3-2.4-8.7-4.2-12.7C241,445.5,236.9,437,232.8,428.4z M115.5,125.5
		c2-4.3,3.9-8.2,5.6-12.1c2.7-6.2,5.3-12.5,7.7-18.8c0.4-1.2-0.5-3-1.2-4.3c-0.1-0.3-2.6,0-2.9,0.5c-2,4.3-3.8,8.7-5.7,13
		c-2.8,6.5-5.8,13-8.5,19.6c-0.9,2.1-1.1,4.4-1.7,6.6c2.8,0.4,5.6,1.5,8.3,1.1c4.1-0.6,8-2.1,11.9-3.3c4.3-1.4,8.6-2.9,12.9-4.3
		c0.1-0.6,0.1-1.2,0.2-1.8c-1.9-0.6-3.9-1.9-5.6-1.6C129.7,121.6,123.1,123.5,115.5,125.5z M222.9,432.2
		c-8.1,7.1-11.1,20.4-7.7,29.4c1.8,4.7,2.3,9.9,3.9,14.8c0.5,1.6,2.6,4.2,3.6,4c3.2-0.6,6.3-2.1,9.4-3.4c0.1,0-0.4-1.5-0.7-2.2
		c-0.4-0.9-1.2-1.7-1.3-2.5c-1.6-10.1-3-20.2-4.6-30.3C224.9,438.7,223.8,435.6,222.9,432.2z M124.5,478.8c0.4-0.3,0.7-0.7,1.1-1
		c0.6-4.6,0.8-9.2,1.8-13.7c1.7-8.3,4.2-16.4,5.7-24.7c1.2-6.7-0.8-9.3-7.2-11.6c-4.8-1.7-6.8-0.3-6.9,4.8
		c-0.2,6.8-0.9,13.6-0.9,20.3c0,3.4,0.5,6.9,1.2,10.2c0.8,4,2,7.9,3.2,11.7C122.7,476.3,123.7,477.5,124.5,478.8z M216.5,474.7
		c-4.5-16.2-8.6-30.7-12.7-45.2c-0.7-0.5-1.3-1.1-2-1.6c-0.5,1.4-1.3,2.7-1.6,4.2c-2.3,8.8-4.9,17.5-6.4,26.4
		c-0.4,2.5,2,6.2,4.1,8.3c2.4,2.4,5.8,3.9,8.9,5.2C209.5,473.2,212.6,473.6,216.5,474.7z M110.2,476c-0.1,0,0.4-0.1,0.4-0.3
		c0.2-0.8,0.4-1.6,0.5-2.4c1.3-11,2.7-22,3.6-33.1c0.4-4.7,0.2-9.5-0.2-14.2c-0.1-1.4-1.6-2.6-2.5-3.9c-1.3,1.1-3.1,1.9-3.9,3.2
		c-6.8,10.4-6.8,21.6-3.3,33.1C106.6,464.2,108.4,470.1,110.2,476z"/>
	<path d="M83.3,223.3c9.8,0,19.6,0,29.4,0c10.4-0.1,20.8-0.6,31.2-0.1c2.8,0.1,6.4,2.4,8.2,4.8c5.4,6.9,9,17.7,3.5,27
		c-3.7,6.3-5.9,13.7-7.4,20.9c-2.2,10.1-7,18.8-13.8,26c-3.5,3.7-9.7,5.4-15,7c-5.4,1.7-11,2.3-16.6,3.1c-2.9,0.4-6.2,0.8-8.9-0.1
		c-11-4.1-22.1-3.8-33.3-1.8c-3.3,0.6-5.3-0.6-6.7-3.7c-0.8-1.7-2.2-3.3-3.6-4.6c-10.1-9.7-11.1-23-14.1-35.4
		c-0.7-2.9-1.1-6-0.9-8.9c0.2-2.7,0.8-5.7,2.3-7.8c4.4-6.2,9.3-12,13.9-18.1c3.8-5,9.5-5.6,15-6.2c5.6-0.6,11.3-0.7,16.9-1.1
		C83.3,223.9,83.3,223.6,83.3,223.3z"/>
	<path d="M221.4,226.8c12.8,1.9,25.7,3.8,38.5,5.7c1.3,0.2,2.7,0.5,4,0.2c11.9-2.9,21.5,3.7,31.8,7.6c6.4,2.4,7.4,8.4,9.8,13.4
		c3.7,7.7,5.1,16,4.4,24.6c-0.1,1.1-0.4,2.3-0.7,3.4c-1.6,7.3-3.9,14.6-4.7,22c-0.5,5.2-2.3,9.6-5,13.8c-2.8,4.4-8.4,6.6-13.8,5.7
		c-2.6-0.4-5.2-0.1-7.8-0.2c-3.3-0.2-6.7,0.1-9.9-0.7c-11.6-2.9-23-6.2-34.6-9.3c-7.2-1.9-12.5-6.1-16.6-12.4
		c-4.6-7.2-10.5-13.7-14.3-21.3c-5.4-11.1-10.7-22.5-10-35.4c0.5-8.4,7.1-15.2,15.7-15.7c4.3-0.2,8.6,0,12.9,0
		C221.3,227.5,221.3,227.1,221.4,226.8z"/>
	<path d="M245.2,447.9c1.4-9.2-4-16.2-6.8-24.1c-1.5-4.2-2.1-8.7-3-13.1c-0.9-4.4,1.7-7,5.5-7.4c7.1-0.6,11.4-4.9,15.1-10.2
		c4.1-5.8,9.1-6.2,15.5-3.1c5.1,2.6,10.8,4.2,16.4,5.5c4.5,1,7.2-2.1,9.3-5.9c6.3-11.8,12.5-23.7,19.5-35.2
		c3.8-6.3,9.2-11.7,13.9-17.4c1.5-1.8,2.7-3.4,0.6-5.5c-7.5-7.5-7.6-16.9-6.8-26.5c0.2-3-0.4-6.1-0.7-9.2c-0.6-5.7-1-11.5-2.1-17.1
		c-1.4-7-3.4-13.9-5.2-20.8c-3.3-12.8-5-25.7-4.1-39c0.5-7.1-1.7-14.5-0.3-21.3c2.8-13.9,6.6-27.8,11.2-41.2
		c3.6-10.4,4.5-20.6,3.6-31.3c-0.3-3.8-1-7.7-0.3-11.4c3.7-20.5-7.7-36.8-23.9-45.8c-5.3-3-11.3-4.9-16.7-7.8
		c-9.1-4.9-17.8-10.4-26.9-15.1c-5.2-2.8-11-4.5-16.4-7.1c-3.8-1.9-7.5-4.3-11-6.7c-10.4-7.3-22.1-10.5-34.4-12.1
		c-2.1-0.3-4.3-0.8-6.2-1.7c-15.5-7.3-29.6-4.9-43.5,4.8c-5.9,4.1-13.4,6.3-20.5,8.1c-14.7,3.8-30.2,5.1-42.1,16.2
		c-2.4,2.2-5.6,3.6-8.7,4.9c-19.7,8.5-31.1,23.3-36.7,44.1c-2.9,10.8,1.6,18.9,5.5,27.3c5.4,11.8,9.9,23.6,9.9,36.6
		c0,10.4-1,20.8-1.8,31.2c-0.4,5.7-1.3,11.3-2.1,17c-0.1,1-0.9,2-1.6,2.9c-10.3,12.3-19.1,25.5-23.5,41.2
		c-3.1,11.1-5.1,22.1-5.1,33.8c0,12.2-1.3,24.4-2.3,36.6c-0.6,7.7,4.7,15.3,12.1,17c1.9,0.5,3.8,1.3,5.6,2.1
		c3.9,1.7,4.4,4.6,2.5,8.2c-0.3,0.6-0.7,1.1-1,1.7c-4.1,6.3-3.5,9.4,1.8,14.7c7.8,7.7,16.9,9.9,27.4,7.8c16.9-3.4,31.2,6,34.8,22.9
		c1.8,8.4,4.8,16.7,2.4,25.5c-1.5,5.6-2.8,11.3-4.9,16.6c-0.6,1.5-3.9,2-5.9,2.9c-0.4-0.4-0.8-0.8-1.2-1.2c1-2.9,1.7-5.9,3.1-8.6
		c3.8-7.6,5.9-15.4,3.9-24c-1.2-5.2-0.9-10.9-3.1-15.6c-4.7-9.9-13.5-17-26.8-13.6c-13.4,3.5-30.3-3.5-37.9-14.8
		c-3.2-4.8-1.7-8.8,0.5-13c1-1.9,2.3-3.6,3.4-5.3c-5.2-2.5-10.6-4.2-14.8-7.3c-6-4.4-8.8-10.6-6.3-18.4c2.7-8.5,3.3-17.2,2.2-26.1
		c-1.7-13.9,0-27.4,5.2-40.5c2.9-7.2,4-15.3,7.6-22.1c3.9-7.4,9.7-13.8,14.6-20.7c0.9-1.2,2.7-2.6,2.5-3.5c-2-9.2,4.3-17.7,2.1-26.9
		c-0.2-0.9,0-2,0.3-3c2.9-9.6,2.1-19.5,1.4-29.1c-0.6-8.3-4-16.3-10.2-22.6c-4.7-4.7-4.8-11.2-5.5-17.1c-1.1-9.8,0.1-20.2,5.4-28
		C48.6,66.6,56.3,51.2,74,45.7c6-1.9,11.7-5.7,16.8-9.6c3.7-2.8,7.6-4.2,12-5.4c12.6-3.5,26-5.7,37.2-11.8c10.4-5.6,21.3-6.9,32-9.9
		c2.1-0.6,4.6,0,6.9,0.4c9.1,1.8,18.4,3.2,27.2,5.9c10.8,3.3,21.9,6.2,31.5,13c5.8,4.1,12.3,7.1,18.7,10.2c9.2,4.5,18.9,7.5,27,14.3
		c5.1,4.2,11.8,6.9,18.3,8.9c10.4,3.2,16.7,10.5,22,19.1c7.1,11.2,9.3,23.5,8.5,36.7c-0.5,7.9,0.4,15.9,0.4,23.8
		c0,2.2-0.9,4.5-1.6,6.6c-3.3,11.1-6.8,22.1-10,33.3c-1.8,6.4-5.2,13.1-4.4,19.2c0.9,6.5,0.9,12.7,0.2,19.1
		c-1.4,12.6,2.2,24.8,4.5,37c2.3,12.2,5.5,24.3,7.8,36.5c0.9,4.8,0.4,9.9,0.2,14.9c-0.3,7.6,1.8,14.6,5.8,20.8
		c2.9,4.5,2.4,8.3-0.6,12.4c-5.9,8-11.9,16-17.3,24.4c-6,9.1-11.4,18.6-17.2,27.9c-4.5,7.2-9.8,9-17.8,6.2
		c-5.2-1.8-10.4-3.5-15.5-5.6c-2.7-1.1-4.7-1-6.2,1.8c-3.6,6.5-8.5,11.5-16.2,12.8c-0.7,0.1-1.8,1-1.7,1.4
		c0.4,4.9,0.1,10.1,1.7,14.5c1.4,3.8,5.2,6.8,7.9,10.1c0.4,0.5,0.8,1.1,0.9,1.7C253.9,439.9,249.6,446.6,245.2,447.9z"/>
	<path d="M171.1,292c0.3,2.8,0.9,5.1,0.7,7.3c-0.9,9.4,0.7,18.6,1.7,28c0.6,6.2-0.7,12.6-1.2,18.8c-0.1,1-0.3,2-0.2,3
		c1.1,10.7,2.2,21.3,3.4,32c0.2,1.8,0.5,3.5,0.6,4.3c-8.4,0-16.5-0.1-24.6,0.1c-2,0.1-3.9,1.7-6,2.1c-1.9,0.4-4.2,0.7-5.7-0.2
		c-1.2-0.7-1.7-3.1-1.9-4.8c-0.9-7.8,1.6-15.1,3.9-22.4c1.2-3.8,1.5-7.8,2.4-11.7c4.7-20.3,12.3-39.2,25.5-55.6
		C169.8,292.8,170.1,292.7,171.1,292z"/>
	<path d="M153.3,160.8c-12.9-11.3-26.7-9.2-41.1-6.1c-9.1,2-18.3,3.2-26.5,8.1c-10.1,6-17.2,14.5-20.3,26
		c-1.8,6.7-0.1,11.1,6.1,13.1c4.7,1.5,10.5,2.9,15,1.5c10.9-3.2,21.1-8.9,32-12.1c15.9-4.7,15.5-18.4,18.8-30.4
		c0.4-1.5,1.2-2.8,1.7-4.2c1.1,1.2,2.7,2.2,3.3,3.6c2.1,5.2,3.9,10.5,5.8,15.8c7-2.4,11.6-9.3,20.6-9c-4.1,8.8-15.3,6.6-19.1,14.1
		c0.3,0.4,0.5,0.8,0.8,1.2c3.1-2.1,6.2-4.3,9.4-6.3c0.8-0.5,2-0.2,3-0.2c-0.3,0.9-0.3,2.2-1,2.8c-3.4,3.2-8.7,5.7-9.9,9.5
		c-1.2,3.7,1.8,8.7,2.8,13.1c0.8,3.2,1.4,6.5,1.2,10.1c-6.2-6.1-5.2-15.2-9.9-22.3c-4.2,2.4-8.9,4.3-12.7,7.4
		c-1.7,1.4-1.6,5.1-2.3,7.8c-0.5,2.2-0.7,4.6-1.6,6.7c-0.4,1-2.1,1.6-3.1,2.4c-0.4-0.3-0.8-0.6-1.2-0.9c0.9-4.1,1.9-8.2,2.7-11.8
		c-2.4,0-4.5,0-6.5,0c1.6-1.5,3.2-3,4.8-4.6c1.4-1.3,2.7-2.6,4.1-3.9c-0.3-0.4-0.7-0.8-1-1.2c-6,3.4-11.6,7.4-17.9,10.1
		c-10,4.2-19.8,9.3-31.1,9.6c-8.8,0.3-15.5-3.7-19.2-10.9c-4.1-7.9-4.4-16.8,1.7-24c12.7-15,27.3-27,48.1-28.8
		c13.1-1.1,26.1-2.8,39.1,0.7c0.2,0,0.4,0,0.5,0.1c2.5,2,5.7,3.6,7.2,6.2C158.4,155,155.1,158.2,153.3,160.8z M137.1,181
		c0.6,0.4,1.3,0.8,1.9,1.3c1.6-2,4.5-3.9,4.5-5.9c0-3.6-1.7-7.2-2.7-10.7c-0.3,0-0.6,0-0.8,0C139,170.8,138,175.9,137.1,181z
		 M133.8,189.6c0.4,0.6,0.7,1.1,1.1,1.7c3.7-2.3,8.3-3.2,10.9-7c-0.3-0.4-0.6-0.8-0.9-1.2C141.2,185.2,137.5,187.4,133.8,189.6z"/>
	<path d="M182.6,387.4c1.1-18.1,0.7-35.3-1.7-52.7c-1.8-13.4-1.9-27.1-2.8-40.6c0.6-0.2,1.1-0.4,1.7-0.6c1.1,1.3,2.4,2.4,3.2,3.9
		c5.3,9.5,11.2,18.8,15.5,28.8c2.9,6.7,4,14.4,4.8,21.8c1.3,11.4,7,21.3,10.3,32c0.8,2.5,0.6,3.5-1.7,3.9
		c-8.8,1.4-17.6,2.6-26.5,3.9C184.6,387.8,183.6,387.5,182.6,387.4z"/>
	<path d="M258.3,185.5c-0.2,3.3-0.5,6.7-0.5,10c-0.1,6.4,0.1,12.9-0.1,19.3c0,1.4-1,3.5-2.1,4c-1.4,0.7-3.7,0.6-5-0.1
		c-0.9-0.5-1.4-2.8-1.3-4.2c1.8-17,4.1-33.9,5.4-51c0.5-7.1-1.1-14.5-1.6-21.7c-0.1-1.7,0.2-3.5,1.4-5.5c0.6,1,1.7,1.9,1.9,3
		c1.6,9.8,2.7,19.7,4.8,29.3c1.8,8.2,4.6,16.3,7.4,24.2c1.7,4.8,4.2,9.2,6.7,14.6c3.8-12.2,7.1-23.5,10.8-34.6
		c3.7-11,7.9-21.9,11.7-32.8c1.6-4.7,3.1-9.5,4.3-14.3c1.9-7.7,3-8.3,10.9-4.5c-1.6,3-3.6,5.9-4.8,9.1c-6,16.3-11.6,32.8-17.5,49.1
		c-2.2,6.1-5.2,11.9-7.1,18.1c-1.5,4.9-2,10-2.9,15.1c-0.3,1.5,0,3.2-0.7,4.4c-1,1.7-2.6,3.1-4,4.6c-1-1.5-2.3-3-3-4.7
		c-4.5-10.5-8.8-21-13.2-31.5C259.2,185.4,258.8,185.5,258.3,185.5z"/>
	<path d="M223.6,82.3c1.7,7.3,3.1,13.4,4.4,18.9c3.1-16.5,6.3-33.8,9.6-51.1c0.8,0,1.6,0,2.4,0c0.4,1.7,1.1,3.4,1.1,5.1
		c-0.3,22.9-0.6,45.8-1,68.8c0,2-1.4,4-2.1,5.9c-0.5-0.2-1.1-0.3-1.6-0.5c0-13.2,0-26.3,0-40.2c-3,14.6-5.9,28.6-8.9,43.1
		c-4.8-2.4-3-6.5-3.3-9.4c-0.7-7.6-0.6-15.3-1.8-23c-5.1,11.6-4,25-10.7,37C209.6,132.3,219.6,86.2,223.6,82.3z"/>
	<path d="M199.5,217.7c2.6-27.2,5.2-54.4,7.8-81.6c0.4-0.1,0.7-0.2,1.1-0.3c3.1,13.8,6.2,27.7,9.1,40.8c4.8-15.7,9.6-31.6,14.5-47.5
		c0.1-0.5,1.3-0.6,3.3-1.5c-5.7,28.8-16.7,55.4-16.7,84.4c-5.2-13.5-6.8-27.6-9.6-41.7c-2.2,15.9-4.4,31.8-6.6,47.6
		C201.4,218,200.5,217.8,199.5,217.7z"/>
	<path d="M89.5,92.7c-8.6,3.6-16.7,7-24.9,10.4c-0.3-0.7-0.7-1.3-1-2c1.4-1.1,2.6-2.7,4.2-3.4c21.3-8.2,41.4-19.7,63.8-25.1
		c1.4-0.3,2.9,0.3,4.4,0.4c-0.7,1.4-0.9,3.2-2,4.1c-11.8,9.2-23.8,18.2-35.5,27.5c-1.7,1.3-3.4,3.9-3.3,5.9c0.4,9.5,1.4,19,2.3,29.5
		c-0.4,0.1-2.1,0.9-4,1.3c-3.2,0.7-4.4-0.6-4.3-4c0.2-8.4,0.1-16.8,0.1-25.6c-5.2,3.2-10.3,6.3-15.3,9.5c-0.7,0.4-1.3,1.3-2,1.4
		c-1.6,0.2-3.2,0.1-4.8,0.1c0.7-1.3,1-3.1,2.1-3.9c4.2-3.3,8.3-6.8,13.1-9.1C89.9,106.1,91,100.4,89.5,92.7z M127.2,78.9
		c-0.2-0.3-0.4-0.6-0.6-1c-0.9,0.2-1.9,0.2-2.8,0.5c-9,3.6-18,7.2-27,11c-0.8,0.3-1.7,1.7-1.7,2.6c-0.1,2.8,0.2,5.7,0.4,9
		C106.5,93.3,116.8,86.1,127.2,78.9z"/>
	<path d="M281.7,104.8c-2.1,1.1-4,2.8-6.2,3.3c-5.3,1.4-7.1,4.7-6.5,9.8c0.9,7.6,1.7,15.1,2.5,22.7c-6.5,1.1-8.3-1-7.4-7.9
		c0.8-6.4,0.8-12.8,1.2-19.7c-4.1,1.2-8,1.5-10.6,3.5c-2,1.6-2.7,5.3-3.2,8.1c-0.6,3.7-0.5,7.5-0.7,11.3c-8.1,0-9.6-2.2-6.6-8.8
		c1-2.3,2.1-4.5,3.4-7.2c-2.2,0-3.8,0-5.4,0c-0.2-0.4-0.3-0.8-0.5-1.1c2.7-1.4,5.3-2.8,8-4.2c-0.1-0.4-0.2-0.8-0.3-1.2
		c-1.8,0-3.5,0-5.4,0c0.1-0.8,0.1-1.4,0.2-1.4c10.5-3.3,9.7-13.6,12.7-21.3c4.5-11.7,8.3-23.8,12.5-35.7c0.1-0.4,0.7-0.7,2.5-0.8
		c-1,7.6-2.4,15.1-2.8,22.7c-0.5,7.8-0.1,15.6-0.1,23.4c4.2-1.3,8.1-2.4,12-3.6c0.2,0.6,0.4,1.2,0.6,1.8c-4.3,2-8.7,3.9-13,5.9
		c0.3,0.7,0.5,1.3,0.8,2c3.8-1.2,7.6-2.3,11.5-3.5C281.1,103.4,281.4,104.1,281.7,104.8z M265,81.4c-0.4,0-0.8-0.1-1.2-0.1
		c-2.3,7.9-4.6,15.8-6.9,23.7c0.5,0.4,1,0.7,1.5,1.1c2.2-2,6-3.7,6.4-5.9C265.5,94,265,87.7,265,81.4z M265.2,107.9
		c-8.9,1.1-8.9,1.1-10.7,5.1C258.4,111.1,261.8,109.5,265.2,107.9z"/>
	<path d="M214.5,101.2c-3.3-0.7-6.7-1.1-9.9-2.1c-0.6-0.2-1.1-2.5-0.8-3.6c2.4-9.9-1.6-18.3-6.8-26.1c-1-1.5-4.9-2.4-6.7-1.6
		c-2.2,1-4.4,3.7-5.1,6.1c-1.2,4.1-1.3,8.5-1.6,12.8c-0.5,6.1,0.9,11.6,6.4,15c11.9,7.3,15.2,18.1,13.3,31.2
		c-0.2,1.2-0.3,2.3-0.5,3.5c-0.4,3.9-0.9,8.7-5.3,9c-3.8,0.2-8.8-1.3-11.5-3.9c-6.6-6.4-7.7-15.1-7-24.6c2.3,0.2,4.3,0.4,6.4,0.6
		c3.7,0.5,4.5,2.1,2.5,5.4c-2.8,4.6-2.9,9.6,0.1,14.1c1.1,1.7,3.6,3.5,5.4,3.5c1.6,0,3.8-2.2,4.6-3.9c1.2-2.6,1.8-5.7,2.2-8.6
		c1.2-10.2-3.4-17.6-11.5-23.5c-12.1-8.7-13.3-28.3-2.7-38.7c4.7-4.6,8-4.7,13-0.5c4.2,3.6,7.5,7.7,9.2,13.2
		c2.2,7.2,5.3,14.1,8,21.1C215.6,100,215.1,100.6,214.5,101.2z"/>
	<path d="M144.4,138.4c1.6-5.8,3.2-11.7,4.7-17.1c-2.3-0.4-4.3-0.8-6.3-1.1c0-0.5,0-1,0-1.5c3.1-2,6.1-4,9.2-5.9
		c-0.2-0.3-0.3-0.7-0.5-1c-2.9,1.3-5.9,2.6-8.8,3.9c-0.3-0.6-0.7-1.2-1-1.8c2-1.5,3.8-3.3,6-4.3c4.2-2,5.7-5,6.3-9.6
		c0.9-6.7,3.2-13.2,5-19.8c0.2-0.7,1.4-1.6,2-1.5c0.7,0.1,1.8,1,2,1.8c1.1,3.4,1.9,7,2.8,10.5c0.4,1.9,0.7,3.9,1,6.1
		c2.2-1.1,3.9-2,5.6-2.8c0.4,0.3,0.7,0.7,1.1,1c-2.2,2.4-4.4,4.7-6.7,7.1c0.3,0.3,0.5,0.6,0.8,0.9c2.2-1.1,4.4-2.3,6.6-3.4
		c0.4,0.3,0.9,0.6,1.3,0.8c-0.7,1.4-1.1,3.4-2.3,4.2c-3.6,2.4-5.6,4.8-4.4,9.7c1.6,6.6,1.9,13.5,3.3,20.1c1.1,5.2-1.6,5.9-5.1,5.9
		c-0.8-9.7-1.6-19.1-2.5-28.9c-9.3,4.8-14,13-12.9,21.6C152.5,139.8,151.3,140.7,144.4,138.4z M158,102.4c6.4-2.2,3.7-6.8,3.1-10.8
		C160.1,95.1,159.1,98.6,158,102.4z"/>
	<path d="M193,186.1c2.2-12.8,4.3-25.6,6.5-38.4c0.7,0,1.4,0,2.1,0c0.3,2.4,1.1,4.9,0.7,7.1c-1.4,9.5-3.4,19-4.7,28.5
		c-0.8,5.9-0.7,11.9-1.3,17.8c-0.3,3.6-1.1,7.1-1.6,10.8c-4.1-0.1-4.2-2.2-4-5.1c1.2-13.5-5-25.4-8.1-37.9c-0.6,0-1.1,0-1.7,0
		c-1.2,8.5-2.2,17.1-3.6,25.6c-1,6-2.7,11.9-4.2,17.8c-0.2,0.8-1.6,1.2-2.5,1.8c-0.6-1-1.7-2.1-1.6-3.1c0.9-6.8,2.2-13.4,3.1-20.2
		c1.7-12.5,3.2-25.1,5-37.6c0.2-1.7,1.3-3.2,2-4.8c1.3,1.5,3.1,2.9,3.7,4.7c3.2,10.9,6.1,21.9,9.1,32.9
		C192.3,186.1,192.7,186.1,193,186.1z"/>
	<path d="M172.3,465.9c0.7-9.1,1.6-18.2,2.1-27.3c0.2-3.4,1.7-5.1,5-5.7c1.6-0.3,3.2-0.9,4.8-1.4c5.2-1.8,7.6,0.1,7.1,5.6
		c-0.1,0.7,0,1.4-0.3,2c-4,8.4-3.3,17-2.1,25.8c0.3,2.2-1.4,6.6-2.5,6.7c-4.4,0.5-9-0.1-13.4-0.9c-0.8-0.1-1-3.2-1.5-4.8
		C171.7,465.9,172,465.9,172.3,465.9z M176.5,467.9c6,1.9,7.2,1.3,7.5-4.4c0.4-7.5,0.6-15,0.9-22.6c0-0.9,0-1.9,0-2.9
		c-4.4,0.6-4.6,0.6-5.1,4.5C178.7,450.9,177.6,459.3,176.5,467.9z"/>
	<path d="M136.1,489.7c-1.8-9.6-5.9-18.8-4.6-29c1.1-8.4,2.4-16.8,3.4-25.2c0.5-3.8,2.9-4.5,5.9-4.5c3.9,0,7,0.9,8.3,5.4
		c1.7,6.2-1.7,11.3-2.8,16.9c-0.5,2.9-1.5,5.9-1.3,8.8c0.7,9.2-3.9,17-5.9,25.4c-0.2,0.8-1.1,1.5-1.7,2.3
		C137,489.7,136.6,489.7,136.1,489.7z M146.2,433.9c-3.4,1.2-6.1,1.3-6.5,2.4c-1.4,3.3-2.2,6.9-2.6,10.4c-0.8,6.7-1.3,13.5-1.5,20.2
		c-0.1,4.3,0.4,8.7,0.7,13c0.8,0,1.5,0.1,2.3,0.1C141,465.2,143.5,450.3,146.2,433.9z"/>
	<path d="M169,471.2c-6.3,2.6-12.3,5.4-18.5,7.6c-3.5,1.2-3.9-1.5-3.5-4.1c1-6.7,2.1-13.4,3.1-20.1c0.6-4.1,1.1-8.2,1.5-12.3
		c0.5-5.1,4.3-9.7,9.3-10.8c3.2-0.7,4,0.9,4.2,3.8c0.7,10.3,1.6,20.5,2.4,30.8C167.8,467.4,168.4,468.8,169,471.2z M160.8,436.6
		c-0.5-0.1-1.1-0.2-1.6-0.3c-3.9,11.9-7.1,24-8.7,37.5c5.1-1.9,9.2-3.4,13.4-4.9C162.8,457.7,161.8,447.1,160.8,436.6z"/>
	<path d="M251.4,176c0.6,11.4-8.1,18.8-15.9,18.2c-4.4-0.3-8.3-3.2-9.4-7.5c-2.2-8.5,2-18.9,9.5-23.8c6.1-3.9,14.3,1.1,15.6,9.6
		C251.4,173.7,251.3,174.9,251.4,176z M246,178.9c-0.8-2.5-1.2-4.2-1.9-5.6c-2.7-5.8-5.7-6.1-9.2-0.9c-1.6,2.3-3.7,4.9-3.8,7.4
		c-0.2,2.9,0.9,6.5,2.7,8.7c2.3,2.9,5.4,0.7,7.2-1.4C243.1,184.5,244.5,181.3,246,178.9z"/>
	<path d="M232.8,428.4c4,8.6,8.2,17.1,12,25.8c1.8,4.1,3,8.4,4.2,12.7c0.8,2.8,1.5,5.8,1.3,8.7c-0.4,4.6-2.6,5.8-7.2,4.6
		c-1-0.2-1.9-0.5-2.9-0.6c-6.7-0.4-7.2-0.4-6.4-7.2c1.4-11.8-1.7-23.1-3-34.5c-0.4-3-0.1-6-0.1-9.1
		C231.4,428.8,232.1,428.6,232.8,428.4z M237,445.5c-0.4,0.1-0.8,0.1-1.2,0.2c1,9.3,2,18.6,3.1,28.4c1.7,0.4,4,0.8,7.3,1.5
		C245.4,464.1,240.5,455,237,445.5z"/>
	<path d="M115.5,125.5c7.6-2,14.2-3.9,20.9-5.4c1.7-0.4,3.7,1,5.6,1.6c-0.1,0.6-0.1,1.2-0.2,1.8c-4.3,1.4-8.6,3-12.9,4.3
		c-3.9,1.2-7.9,2.7-11.9,3.3c-2.6,0.4-5.5-0.7-8.3-1.1c0.5-2.2,0.8-4.5,1.7-6.6c2.7-6.6,5.7-13,8.5-19.6c1.9-4.4,3.6-8.8,5.7-13
		c0.3-0.6,2.7-0.8,2.9-0.5c0.7,1.3,1.7,3.2,1.2,4.3c-2.3,6.4-5,12.6-7.7,18.8C119.4,117.4,117.5,121.2,115.5,125.5z"/>
	<path d="M222.9,432.2c0.9,3.4,1.9,6.5,2.5,9.7c1.6,10.1,3,20.2,4.6,30.3c0.1,0.9,0.9,1.7,1.3,2.5c0.3,0.7,0.8,2.2,0.7,2.2
		c-3.1,1.3-6.1,2.9-9.4,3.4c-1,0.2-3-2.4-3.6-4c-1.5-4.8-2.1-10-3.9-14.8C211.8,452.6,214.8,439.3,222.9,432.2z M224.4,476.3
		c0.7-0.4,1.5-0.8,2.2-1.2c-2.1-10.9-4.3-21.8-6.4-32.7c-0.6,0-1.2,0-1.8,0c-0.5,3.7-2,7.6-1.4,11.2c1.1,6.4,3.4,12.7,5.3,19
		C222.6,473.8,223.6,475,224.4,476.3z"/>
	<path d="M124.5,478.8c-0.8-1.3-1.8-2.4-2.2-3.8c-1.2-3.9-2.3-7.8-3.2-11.7c-0.7-3.4-1.2-6.8-1.2-10.2c0.1-6.8,0.7-13.6,0.9-20.3
		c0.2-5.1,2.1-6.6,6.9-4.8c6.4,2.3,8.4,4.9,7.2,11.6c-1.5,8.3-3.9,16.4-5.7,24.7c-0.9,4.5-1.2,9.1-1.8,13.7
		C125.2,478.1,124.8,478.4,124.5,478.8z M124.1,432.3c-3.2,9.9-3.8,19.8,0,29.9c2-8.1,3.6-16.3,5-24.5
		C129.6,434.2,127.8,432.5,124.1,432.3z"/>
	<path d="M216.5,474.7c-3.9-1-6.9-1.5-9.7-2.6c-3.2-1.4-6.6-2.9-8.9-5.2c-2.1-2.1-4.5-5.8-4.1-8.3c1.5-8.9,4.1-17.7,6.4-26.4
		c0.4-1.4,1.1-2.8,1.6-4.2c0.7,0.5,1.3,1.1,2,1.6C207.8,444,211.9,458.5,216.5,474.7z M202,437.1c-7.1,22-4.2,26.8,8.4,32.7
		C207.6,459.1,204.9,448.6,202,437.1z"/>
	<path d="M110.2,476c-1.8-5.9-3.5-11.8-5.3-17.6c-3.5-11.5-3.5-22.7,3.3-33.1c0.9-1.4,2.6-2.2,3.9-3.2c0.9,1.3,2.4,2.6,2.5,3.9
		c0.3,4.7,0.6,9.5,0.2,14.2c-1,11-2.4,22-3.6,33.1c-0.1,0.8-0.3,1.6-0.5,2.4C110.5,475.9,110.1,476,110.2,476z M111.4,432.1
		c-5,7.8-5.8,20.8-2.5,27C109.8,449.9,110.6,441,111.4,432.1z"/>
	<path class="st0" d="M137.1,181c1-5.1,1.9-10.2,2.9-15.3c0.3,0,0.6,0,0.8,0c1,3.6,2.7,7.2,2.7,10.7c0,2-2.9,3.9-4.5,5.9
		C138.3,181.8,137.7,181.4,137.1,181z"/>
	<path class="st0" d="M133.8,189.6c3.7-2.2,7.4-4.4,11.1-6.6c0.3,0.4,0.6,0.8,0.9,1.2c-2.6,3.8-7.2,4.7-10.9,7
		C134.5,190.7,134.1,190.1,133.8,189.6z"/>
	<path class="st0" d="M127.2,78.9c-10.3,7.2-20.7,14.4-31.7,22.1c-0.2-3.3-0.5-6.2-0.4-9c0-0.9,0.9-2.3,1.7-2.6c9-3.8,18-7.4,27-11
		c0.9-0.3,1.9-0.3,2.8-0.5C126.8,78.3,127,78.6,127.2,78.9z"/>
	<path class="st0" d="M265,81.4c0,6.3,0.6,12.6-0.3,18.7c-0.3,2.2-4.1,4-6.4,5.9c-0.5-0.4-1-0.7-1.5-1.1c2.3-7.9,4.6-15.8,6.9-23.7
		C264.1,81.3,264.6,81.4,265,81.4z"/>
	<path class="st0" d="M265.2,107.9c-3.4,1.6-6.8,3.2-10.7,5.1C256.2,109,256.2,109,265.2,107.9z"/>
	<path class="st0" d="M158,102.4c1.1-3.9,2.1-7.3,3.1-10.8C161.7,95.6,164.4,100.2,158,102.4z"/>
	<path class="st0" d="M176.5,467.9c1.1-8.7,2.1-17,3.3-25.3c0.5-3.9,0.7-3.9,5.1-4.5c0,1,0,1.9,0,2.9c-0.3,7.5-0.5,15-0.9,22.6
		C183.7,469.2,182.6,469.9,176.5,467.9z"/>
	<path class="st0" d="M146.2,433.9c-2.7,16.4-5.2,31.3-7.7,46.1c-0.8,0-1.5-0.1-2.3-0.1c-0.2-4.3-0.8-8.7-0.7-13
		c0.2-6.8,0.8-13.5,1.5-20.2c0.4-3.5,1.2-7.1,2.6-10.4C140.2,435.2,142.9,435.1,146.2,433.9z"/>
	<path class="st0" d="M160.8,436.6c1,10.5,2,21.1,3.1,32.2c-4.2,1.5-8.3,3.1-13.4,4.9c1.6-13.5,4.8-25.6,8.7-37.5
		C159.7,436.3,160.3,436.4,160.8,436.6z"/>
	<path class="st0" d="M246,178.9c-1.5,2.5-2.8,5.7-5,8.2c-1.8,2.1-4.9,4.3-7.2,1.4c-1.8-2.3-2.8-5.8-2.7-8.7
		c0.1-2.5,2.2-5.1,3.8-7.4c3.5-5.2,6.5-4.9,9.2,0.9C244.8,174.7,245.2,176.3,246,178.9z"/>
	<path class="st0" d="M237,445.5c3.6,9.5,8.5,18.7,9.1,30.1c-3.2-0.7-5.6-1.1-7.3-1.5c-1.1-9.8-2.1-19.1-3.1-28.4
		C236.2,445.6,236.6,445.5,237,445.5z"/>
	<path class="st0" d="M224.4,476.3c-0.7-1.3-1.7-2.4-2.1-3.8c-1.9-6.3-4.2-12.5-5.3-19c-0.6-3.5,0.9-7.4,1.4-11.2c0.6,0,1.2,0,1.8,0
		c2.1,10.9,4.3,21.8,6.4,32.7C225.8,475.5,225.1,475.9,224.4,476.3z"/>
	<path class="st0" d="M124.1,432.3c3.7,0.2,5.6,1.8,5,5.3c-1.4,8.2-3,16.4-5,24.5C120.3,452.1,120.8,442.3,124.1,432.3z"/>
	<path class="st0" d="M202,437.1c3,11.6,5.6,22,8.4,32.7C197.7,463.9,194.9,459.1,202,437.1z"/>
	<path class="st0" d="M111.4,432.1c-0.8,8.9-1.6,17.8-2.5,27C105.6,452.9,106.4,439.9,111.4,432.1z"/>
</g>
</svg>
